<svg xmlns="http://www.w3.org/2000/svg" x="0px" y="0px" width="100" height="100" viewBox="0,0,256,256">
<g fill="#ffffff" fill-rule="nonzero" stroke="none" stroke-width="1" stroke-linecap="butt" stroke-linejoin="miter" stroke-miterlimit="10" stroke-dasharray="" stroke-dashoffset="0" font-family="none" font-weight="none" font-size="none" text-anchor="none" style="mix-blend-mode: normal"><g transform="scale(8,8)"><path d="M16,2c-1.91667,0 -3.48144,0.75476 -4.49805,1.89844c-1.01661,1.14368 -1.50195,2.62934 -1.50195,4.10156c0,1.47222 0.48535,2.95788 1.50195,4.10156c1.01661,1.14368 2.58138,1.89844 4.49805,1.89844c3.30186,0 6,-2.69814 6,-6c0,-3.30186 -2.69814,-6 -6,-6zM16,4c2.22099,0 4,1.77902 4,4c0,2.22099 -1.77901,4 -4,4c-1.41667,0 -2.35189,-0.49524 -3.00195,-1.22656c-0.65006,-0.73132 -0.99805,-1.74566 -0.99805,-2.77344c0,-1.02778 0.34799,-2.04212 0.99805,-2.77344c0.65006,-0.73132 1.58529,-1.22656 3.00195,-1.22656zM16,15.96094c-2.36349,0 -5.19067,0.62246 -7.53906,1.64258c-1.17014,0.51061 -2.22298,1.12114 -3.03711,1.86914c-0.81413,0.748 -1.43359,1.69296 -1.43359,2.80664c0,1.82857 1.18894,3.30115 2.69727,4.00586c2.10571,0.99006 5.3209,1.56314 8.78516,1.625c0.35731,0.00635 0.69086,-0.17843 0.87498,-0.48472c0.18412,-0.30629 0.19082,-0.68754 0.01758,-1.00011c-0.17324,-0.31257 -0.50009,-0.50896 -0.8574,-0.51517c-3.25415,-0.05811 -6.33832,-0.66645 -7.97266,-1.43555c-0.00065,0 -0.0013,0 -0.00195,0c-0.93168,-0.43529 -1.54297,-1.22388 -1.54297,-2.19531c0,-0.35631 0.21624,-0.80949 0.78711,-1.33398c0.57054,-0.5242 1.45137,-1.05858 2.48047,-1.50781c2.07161,-0.89988 4.74567,-1.47656 6.74219,-1.47656c2.86802,0 7.15413,1.27056 9.00586,2.79102c0.27486,0.23714 0.65665,0.30672 0.9975,0.18179c0.34085,-0.12494 0.58723,-0.42476 0.64373,-0.78337c0.0565,-0.3586 -0.08577,-0.71966 -0.37169,-0.94334c-2.50827,-2.05954 -6.88341,-3.2461 -10.27539,-3.24609zM31.00977,19.99219c-0.19131,0.00073 -0.37839,0.05631 -0.53906,0.16016c-2.97906,1.85891 -5.39484,4.37447 -7.4707,7.25977c-1.01301,-1.30138 -2.12511,-2.4744 -3.49609,-3.27539c-0.30912,-0.19396 -0.69936,-0.20415 -1.01818,-0.02658c-0.31882,0.17757 -0.51561,0.51471 -0.51345,0.87964c0.00216,0.36493 0.20292,0.69972 0.52382,0.8735c1.38373,0.80843 2.58531,2.08875 3.67578,3.69727c0.18727,0.27621 0.49996,0.44082 0.83366,0.43886c0.3337,-0.00196 0.64444,-0.17023 0.82845,-0.44863c2.09297,-3.17533 4.61402,-5.78043 7.69531,-7.70312c0.384,-0.23264 0.56591,-0.69268 0.44485,-1.12503c-0.12106,-0.43235 -0.5154,-0.73103 -0.96438,-0.73044z"></path></g></g>
</svg>